<svg width="200" height="200" viewBox="0 0 200 200" fill="none" xmlns="http://www.w3.org/2000/svg">
<path d="M163.048 75.484V72.3286C163.041 67.3536 161.061 62.5845 157.543 59.0666C154.025 55.5487 149.256 53.5692 144.281 53.5619H51.001C45.5325 53.7392 40.1409 54.902 35.0853 56.9941C34.1442 57.354 33.2308 57.7692 32.3173 58.212C30.5055 59.074 28.7573 60.0637 27.0859 61.1737C26.4718 61.5543 25.8803 61.9702 25.3144 62.4193C24.7087 62.8193 24.1265 63.2536 23.5706 63.7203C22.9893 64.1631 22.4357 64.6337 21.8821 65.1319C21.4756 65.4609 21.0875 65.812 20.7196 66.1837C20.3598 66.4882 20.0276 66.8204 19.6954 67.1525C19.3633 67.4847 18.4499 68.4258 17.8686 69.0901C17.2873 69.7544 17.1489 69.8928 16.8168 70.308C16.1877 71.024 15.5963 71.7723 15.0453 72.55C14.6884 73.0026 14.3557 73.4738 14.0488 73.9617C12.2463 76.5613 10.7246 79.3448 9.50937 82.2655C9.2049 82.9575 8.9281 83.6772 8.67899 84.3969C8.42987 85.1165 8.18075 85.8085 7.95932 86.5559C7.85064 86.8739 7.75825 87.1972 7.68252 87.5246C7.51493 88.0237 7.37631 88.532 7.26733 89.047C6.73463 91.2042 6.3554 93.3963 6.13247 95.6071C6.13247 96.2437 6.13247 96.8803 5.96639 97.5446C5.80031 98.2089 5.96639 99.4268 5.96639 100.313V72.3286C5.98098 60.0291 10.8677 48.2364 19.557 39.5316C28.2462 30.8268 40.0302 25.919 52.3296 25.8824L116.269 25.8824C128.698 25.8824 140.617 30.8195 149.405 39.6077C158.194 48.396 163.131 60.3154 163.131 72.7438C163.131 73.6664 163.103 74.5799 163.048 75.484Z" fill="url(#paint0_linear_94907_86790)"/>
<path d="M134.914 91.3169C134.914 91.6214 134.914 91.9258 134.914 92.2303C134.914 93.4202 134.562 94.5835 133.902 95.5739C133.243 96.5643 132.305 97.3377 131.207 97.7967C130.11 98.2558 128.901 98.38 127.733 98.1539C126.564 97.9277 125.489 97.3612 124.642 96.5256C123.795 95.69 123.214 94.6226 122.972 93.4576C122.73 92.2926 122.837 91.082 123.281 89.9781C123.725 88.8742 124.486 87.9262 125.467 87.2532C126.448 86.5803 127.607 86.2126 128.797 86.1962C124.36 83.7202 119.16 82.984 114.211 84.131C109.261 85.278 104.915 88.2261 102.02 92.4012C99.1242 96.5763 97.8862 101.68 98.5467 106.717C99.2072 111.755 101.719 116.367 105.593 119.654C109.467 122.942 114.426 124.67 119.504 124.502C124.582 124.334 129.416 122.283 133.064 118.746C136.713 115.21 138.915 110.443 139.241 105.373C139.568 100.302 137.995 95.2917 134.831 91.3169H134.914Z" fill="url(#paint1_linear_94907_86790)"/>
<path d="M105.386 147.396L130.657 164.502L130.658 174.965H80.1923C70.636 174.973 61.3051 172.062 53.4493 166.62C45.5936 161.179 39.5881 153.467 36.2372 144.517C34.4224 139.502 33.486 134.212 33.4692 128.878C33.5194 133.764 35.4789 138.437 38.9289 141.897C42.3788 145.358 47.0456 147.331 51.9315 147.396H105.386Z" fill="url(#paint2_linear_94907_86790)"/>
<path d="M190.727 72.3285C190.713 60.0147 185.815 48.2094 177.107 39.5022C168.4 30.795 156.595 25.8969 144.281 25.8822H116.325C122.46 25.8859 128.535 27.0941 134.205 29.4387C139.891 31.7904 145.059 35.2391 149.414 39.588C153.768 43.9369 157.222 49.1009 159.581 54.785C161.939 60.4691 163.155 66.562 163.158 72.716V75.484V92.0784L163.048 106.306H190.727V72.3285Z" fill="url(#paint3_linear_94907_86790)"/>
<path d="M50.1694 53.7005C45.5991 54.2298 41.3826 56.4197 38.3208 59.8538C35.2591 63.2881 33.5655 67.7276 33.562 72.3284V89.6898C33.0439 90.2834 32.5552 90.9063 32.1001 91.5579C28.968 96.0423 27.618 101.533 28.314 106.958C28.8717 111.305 30.7118 115.36 33.562 118.626V128.103C33.5482 128.315 33.5482 128.528 33.562 128.74C33.5788 134.073 34.5149 139.363 36.3296 144.378C39.6662 153.376 45.6838 161.133 53.5688 166.603C61.4539 172.072 70.8271 174.991 80.4233 174.964H52.3286C40.01 174.95 28.2007 170.047 19.4927 161.334C10.7848 152.621 5.88965 140.809 5.88232 128.491V97.6556C5.88232 96.9913 5.88229 96.3547 6.04834 95.7181C6.29596 93.4868 6.70289 91.276 7.26611 89.1028C7.37507 88.5879 7.5136 88.0793 7.68115 87.5804C7.75688 87.253 7.84983 86.9296 7.9585 86.6116C8.17993 85.8643 8.42911 85.1444 8.67822 84.4525C8.92728 83.7606 9.20391 83.0134 9.5083 82.3216C10.7236 79.4009 12.2448 76.6166 14.0474 74.0169C14.3543 73.5291 14.6875 73.0583 15.0444 72.6058C15.6404 71.8247 16.2782 71.0761 16.9546 70.3636C17.2867 69.9485 17.6466 69.5333 18.0063 69.1458C18.3662 68.7583 19.196 67.8449 19.8325 67.2083C20.4691 66.5718 20.4972 66.5439 20.8569 66.2396C21.2247 65.868 21.6126 65.5167 22.019 65.1878C22.5726 64.6896 23.1263 64.2185 23.7075 63.7757C24.2888 63.3328 24.8427 62.8901 25.4517 62.4749C26.0605 62.0598 26.6143 61.6449 27.2231 61.2298C28.8498 60.1255 30.5516 59.1356 32.3159 58.2679C33.2293 57.825 34.1434 57.4099 35.0845 57.0501C39.8904 55.0987 44.9892 53.9662 50.1694 53.7005ZM33.562 113.913C32.2537 111.69 31.3939 109.208 31.0601 106.606C30.5153 102.359 31.4046 98.0674 33.562 94.4017V113.913Z" fill="url(#paint4_linear_94907_86790)"/>
<path d="M45.8682 85.4011C49.3708 84.6036 53.0024 84.8083 56.3584 85.9548C56.2825 86.0026 56.2072 86.0517 56.1328 86.1023C54.9168 86.93 53.973 88.0992 53.4209 89.4626C52.8688 90.8263 52.7326 92.3236 53.0303 93.7644C53.328 95.205 54.0464 96.5252 55.0938 97.5583C56.141 98.5913 57.4706 99.291 58.915 99.5691C60.3597 99.847 61.855 99.6905 63.2109 99.1198C64.5668 98.5491 65.7231 97.5893 66.5342 96.362C66.7787 95.992 66.9885 95.6027 67.1621 95.1989C68.8028 98.3163 69.5677 101.847 69.3359 105.408C69.0254 110.18 66.9485 114.665 63.5107 117.989C60.073 121.313 55.5206 123.237 50.7412 123.386C45.9617 123.536 41.2971 121.9 37.6582 118.798C34.0195 115.695 31.666 111.349 31.0576 106.606C30.4492 101.863 31.6301 97.0636 34.3682 93.1433C37.1063 89.2231 41.2058 86.4627 45.8682 85.4011Z" fill="url(#paint5_linear_94907_86790)"/>
<path d="M154.394 118.612C156.894 117.792 159.603 117.352 162.484 117.352C166.142 117.352 169.522 118.063 172.548 119.355C176.068 116.453 178.977 115.615 181.277 116.841C181.413 116.912 181.514 117.035 181.56 117.182C181.605 117.329 181.59 117.487 181.518 117.623C181.446 117.759 181.323 117.86 181.176 117.906C181.03 117.951 180.871 117.936 180.735 117.864C178.971 116.922 176.633 117.598 173.722 119.892C180.242 123.099 184.945 129.096 186.92 136.456C187.876 136.377 188.985 136.34 190.268 136.34C194.898 136.34 194.898 140.971 194.898 142.129C194.898 143.286 193.741 149.075 190.268 149.075C189.404 149.075 188.425 148.857 187.443 148.445C185.827 155.444 180.332 164.986 170.587 168.519V174.541H165.957V167.595C164.799 168.753 160.168 168.753 159.011 167.595V174.541H154.38V168.521C144.635 164.986 139.14 155.444 137.524 148.447C136.543 148.857 135.563 149.072 134.7 149.072C131.227 149.072 130.069 143.284 130.069 142.126C130.069 140.969 130.069 136.338 134.7 136.338C135.982 136.338 137.091 136.377 138.047 136.456C140.217 128.376 145.672 121.939 153.211 119.033C150.44 116.128 148.22 115.121 146.549 116.012C146.414 116.084 146.255 116.1 146.108 116.055C145.96 116.01 145.837 115.909 145.764 115.773C145.692 115.637 145.676 115.479 145.721 115.331C145.766 115.184 145.867 115.061 146.003 114.988C148.252 113.79 151.049 114.998 154.394 118.612ZM157.853 131.707C157.853 132.628 157.487 133.512 156.836 134.163C156.184 134.814 155.301 135.18 154.38 135.18C153.459 135.18 152.575 134.814 151.924 134.163C151.273 133.512 150.907 132.628 150.907 131.707C150.907 130.786 151.273 129.903 151.924 129.251C152.575 128.6 153.459 128.234 154.38 128.234C155.301 128.234 156.184 128.6 156.836 129.251C157.487 129.903 157.853 130.786 157.853 131.707ZM170.587 135.18C171.508 135.18 172.392 134.814 173.043 134.163C173.694 133.512 174.06 132.628 174.06 131.707C174.06 130.786 173.694 129.903 173.043 129.251C172.392 128.6 171.508 128.234 170.587 128.234C169.666 128.234 168.783 128.6 168.131 129.251C167.48 129.903 167.114 130.786 167.114 131.707C167.114 132.628 167.48 133.512 168.131 134.163C168.783 134.814 169.666 135.18 170.587 135.18Z" fill="#DF251B"/>
<path d="M153.686 131.212C153.686 131.519 153.808 131.813 154.025 132.03C154.242 132.247 154.536 132.369 154.843 132.369C155.15 132.369 155.445 132.247 155.662 132.03C155.879 131.813 156.001 131.519 156.001 131.212C156.001 130.905 155.879 130.61 155.662 130.393C155.445 130.176 155.15 130.054 154.843 130.054C154.536 130.054 154.242 130.176 154.025 130.393C153.808 130.61 153.686 130.905 153.686 131.212ZM169.893 131.212C169.893 131.519 170.015 131.813 170.232 132.03C170.449 132.247 170.744 132.369 171.051 132.369C171.358 132.369 171.652 132.247 171.869 132.03C172.086 131.813 172.208 131.519 172.208 131.212C172.208 130.905 172.086 130.61 171.869 130.393C171.652 130.176 171.358 130.054 171.051 130.054C170.744 130.054 170.449 130.176 170.232 130.393C170.015 130.61 169.893 130.905 169.893 131.212Z" fill="white"/>
<defs>
<linearGradient id="paint0_linear_94907_86790" x1="12.6612" y1="56.5385" x2="160.149" y2="56.5385" gradientUnits="userSpaceOnUse">
<stop stop-color="#D53EF7"/>
<stop offset="1" stop-color="#C400B7"/>
</linearGradient>
<linearGradient id="paint1_linear_94907_86790" x1="98.8645" y1="103.949" x2="139.391" y2="103.949" gradientUnits="userSpaceOnUse">
<stop stop-color="white"/>
<stop offset="1" stop-color="#FF6F00"/>
</linearGradient>
<linearGradient id="paint2_linear_94907_86790" x1="78.1904" y1="176.667" x2="195.671" y2="174.965" gradientUnits="userSpaceOnUse">
<stop stop-color="#4F60FF"/>
<stop offset="1" stop-color="#133CF2"/>
</linearGradient>
<linearGradient id="paint3_linear_94907_86790" x1="153.526" y1="25.8822" x2="153.526" y2="161.512" gradientUnits="userSpaceOnUse">
<stop stop-color="#EF00E3"/>
<stop offset="1" stop-color="#8800C1"/>
</linearGradient>
<linearGradient id="paint4_linear_94907_86790" x1="31.6547" y1="179.444" x2="31.6547" y2="53.7005" gradientUnits="userSpaceOnUse">
<stop stop-color="#7360FF"/>
<stop offset="1" stop-color="#8D00C4"/>
</linearGradient>
<linearGradient id="paint5_linear_94907_86790" x1="30.0121" y1="104.049" x2="70.8678" y2="104.049" gradientUnits="userSpaceOnUse">
<stop stop-color="white"/>
<stop offset="1" stop-color="#C400FF"/>
</linearGradient>
</defs>
</svg>
