<svg width="256" height="256" viewBox="0 0 256 256" fill="none" xmlns="http://www.w3.org/2000/svg">
<rect width="256" height="256" rx="48" fill="white"/>
<path d="M181.032 106.802V104.119C181.026 99.8908 179.343 95.837 176.353 92.8468C173.363 89.8566 169.309 88.174 165.08 88.1678H85.7924C81.1441 88.3185 76.5612 89.3069 72.264 91.0852C71.4641 91.3911 70.6876 91.744 69.9112 92.1204C68.3712 92.8531 66.8852 93.6944 65.4645 94.6379C64.9425 94.9613 64.4397 95.3148 63.9587 95.6966C63.4439 96.0366 62.949 96.4058 62.4765 96.8024C61.9824 97.1789 61.5119 97.5788 61.0413 98.0023C60.6957 98.282 60.3659 98.5804 60.0532 98.8964C59.7473 99.1552 59.465 99.4375 59.1826 99.7198C58.9003 100.002 58.1239 100.802 57.6298 101.367C57.1357 101.931 57.0181 102.049 56.7358 102.402C56.201 103.011 55.6984 103.647 55.23 104.308C54.9266 104.692 54.6439 105.093 54.383 105.508C52.8509 107.717 51.5574 110.083 50.5245 112.566C50.2657 113.154 50.0304 113.766 49.8186 114.378C49.6069 114.989 49.3951 115.577 49.2069 116.213C49.1145 116.483 49.036 116.758 48.9716 117.036C48.8292 117.46 48.7114 117.892 48.6187 118.33C48.1659 120.164 47.8436 122.027 47.6541 123.906C47.6541 124.447 47.6541 124.988 47.5129 125.553C47.3718 126.118 47.5129 127.153 47.5129 127.906V104.119C47.5253 93.665 51.6791 83.6411 59.0649 76.242C66.4508 68.843 76.4672 64.6713 86.9217 64.6402L141.271 64.6402C151.835 64.6402 161.966 68.8368 169.436 76.3068C176.906 83.7768 181.103 93.9083 181.103 104.472C181.103 105.257 181.079 106.033 181.032 106.802Z" fill="url(#paint0_linear_94907_86753)"/>
<path d="M157.118 120.26C157.118 120.518 157.118 120.777 157.118 121.036C157.118 122.047 156.819 123.036 156.258 123.878C155.698 124.72 154.901 125.377 153.968 125.767C153.035 126.158 152.007 126.263 151.014 126.071C150.021 125.879 149.107 125.397 148.387 124.687C147.667 123.977 147.173 123.069 146.967 122.079C146.762 121.089 146.853 120.06 147.231 119.122C147.608 118.183 148.254 117.377 149.089 116.805C149.923 116.233 150.907 115.921 151.919 115.907C148.147 113.802 143.728 113.177 139.52 114.152C135.313 115.126 131.619 117.632 129.158 121.181C126.697 124.73 125.645 129.068 126.206 133.35C126.768 137.632 128.903 141.552 132.196 144.346C135.488 147.141 139.703 148.61 144.02 148.467C148.336 148.324 152.445 146.58 155.546 143.575C158.647 140.569 160.519 136.517 160.797 132.207C161.074 127.897 159.738 123.638 157.048 120.26H157.118Z" fill="url(#paint1_linear_94907_86753)"/>
<path d="M132.02 167.927L153.5 182.467L153.5 191.36H110.605C102.482 191.368 94.5506 188.893 87.8732 184.268C81.1958 179.642 76.0912 173.087 73.2429 165.48C71.7003 161.217 70.9044 156.72 70.8901 152.187C70.9328 156.34 72.5983 160.312 75.5308 163.253C78.4633 166.194 82.4301 167.872 86.5831 167.927H132.02Z" fill="url(#paint2_linear_94907_86753)"/>
<path d="M204.56 104.119C204.547 93.6527 200.384 83.6182 192.983 76.2171C185.582 68.816 175.547 64.6526 165.08 64.6401H141.317C146.532 64.6432 151.696 65.6703 156.515 67.6632C161.349 69.6621 165.742 72.5935 169.443 76.2901C173.144 79.9866 176.08 84.376 178.085 89.2075C180.09 94.039 181.123 99.218 181.126 104.449V106.802V120.907L181.032 133H204.56V104.119Z" fill="url(#paint3_linear_94907_86753)"/>
<path d="M85.0859 88.2856C81.201 88.7355 77.6162 90.5969 75.0137 93.5161C72.4112 96.4352 70.9716 100.209 70.9688 104.12V118.876C70.5285 119.381 70.1133 119.911 69.7266 120.464C67.0643 124.276 65.9173 128.943 66.5088 133.554C66.9828 137.249 68.5462 140.696 70.9688 143.472V151.528C70.957 151.708 70.957 151.889 70.9688 152.069C70.983 156.602 71.7797 161.099 73.3223 165.362C76.1584 173.01 81.2724 179.603 87.9746 184.252C94.6769 188.901 102.645 191.382 110.802 191.36H86.9209C76.4501 191.347 66.4116 187.181 59.0098 179.775C51.608 172.369 47.4476 162.328 47.4414 151.857V125.647C47.4414 125.082 47.4419 124.541 47.583 124C47.7935 122.104 48.1394 120.225 48.6182 118.377C48.7108 117.94 48.8283 117.508 48.9707 117.083C49.0351 116.805 49.1137 116.53 49.2061 116.26C49.3943 115.625 49.6056 115.012 49.8174 114.424C50.0291 113.836 50.2647 113.201 50.5234 112.613C51.5563 110.13 52.8498 107.765 54.3818 105.555C54.6427 105.14 54.9261 104.74 55.2295 104.355C55.7359 103.691 56.2777 103.055 56.8525 102.45C57.1349 102.097 57.4402 101.743 57.7461 101.414C58.052 101.084 58.7587 100.308 59.2998 99.767C59.8407 99.2262 59.8642 99.2025 60.1699 98.9438C60.4826 98.6278 60.8126 98.3289 61.1582 98.0493C61.6285 97.626 62.0989 97.2263 62.5928 96.85C63.0868 96.4736 63.5576 96.0965 64.0752 95.7436C64.5928 95.3907 65.0635 95.0379 65.5811 94.685C66.9638 93.7463 68.4104 92.905 69.9102 92.1674C70.6865 91.791 71.4628 91.4381 72.2627 91.1323C76.3478 89.4736 80.6827 88.5114 85.0859 88.2856ZM70.9688 139.466C69.8568 137.576 69.1255 135.467 68.8418 133.255C68.3788 129.646 69.1352 125.998 70.9688 122.882V139.466Z" fill="url(#paint4_linear_94907_86753)"/>
<path d="M81.4292 115.232C84.4064 114.554 87.4936 114.727 90.3462 115.701C90.2816 115.742 90.2171 115.784 90.1538 115.827C89.1202 116.531 88.3184 117.525 87.8491 118.684C87.3798 119.843 87.264 121.115 87.5171 122.34C87.7702 123.564 88.3808 124.686 89.271 125.565C90.1612 126.443 91.2912 127.037 92.519 127.273C93.747 127.51 95.0178 127.378 96.1704 126.893C97.323 126.408 98.3062 125.591 98.9956 124.548C99.2033 124.234 99.3813 123.903 99.5288 123.56C100.923 126.209 101.573 129.21 101.376 132.237C101.112 136.293 99.3473 140.106 96.4253 142.931C93.5032 145.756 89.6334 147.391 85.5708 147.519C81.5082 147.646 77.5438 146.255 74.4507 143.618C71.3578 140.981 69.3576 137.287 68.8403 133.256C68.3232 129.224 69.3264 125.144 71.6538 121.812C73.9812 118.48 77.4662 116.134 81.4292 115.232Z" fill="url(#paint5_linear_94907_86753)"/>
<path d="M173.676 143.46C175.802 142.763 178.104 142.39 180.552 142.39C183.662 142.39 186.535 142.994 189.108 144.092C192.099 141.625 194.572 140.913 196.527 141.955C196.642 142.016 196.729 142.12 196.767 142.245C196.805 142.37 196.793 142.504 196.732 142.62C196.671 142.735 196.566 142.822 196.441 142.86C196.317 142.898 196.182 142.886 196.066 142.825C194.567 142.024 192.58 142.599 190.105 144.549C195.647 147.274 199.644 152.371 201.323 158.628C202.136 158.561 203.079 158.529 204.169 158.529C208.105 158.529 208.105 162.465 208.105 163.449C208.105 164.434 207.121 169.354 204.169 169.354C203.435 169.354 202.602 169.169 201.768 168.818C200.394 174.768 195.724 182.878 187.441 185.881V191H183.505V185.096C182.521 186.08 178.584 186.08 177.6 185.096V191H173.664V185.883C165.381 182.878 160.711 174.768 159.337 168.82C158.503 169.169 157.67 169.352 156.936 169.352C153.984 169.352 153 164.432 153 163.448C153 162.464 153 158.527 156.936 158.527C158.026 158.527 158.969 158.561 159.782 158.628C161.626 151.759 166.263 146.288 172.67 143.818C170.315 141.349 168.428 140.493 167.008 141.25C166.893 141.312 166.758 141.325 166.633 141.287C166.508 141.249 166.403 141.163 166.341 141.047C166.28 140.932 166.266 140.797 166.304 140.672C166.342 140.547 166.429 140.442 166.544 140.38C168.456 139.362 170.833 140.389 173.676 143.46ZM176.616 154.591C176.616 155.374 176.305 156.125 175.752 156.679C175.198 157.232 174.447 157.543 173.664 157.543C172.881 157.543 172.131 157.232 171.577 156.679C171.023 156.125 170.712 155.374 170.712 154.591C170.712 153.808 171.023 153.058 171.577 152.504C172.131 151.95 172.881 151.639 173.664 151.639C174.447 151.639 175.198 151.95 175.752 152.504C176.305 153.058 176.616 153.808 176.616 154.591ZM187.441 157.543C188.224 157.543 188.974 157.232 189.528 156.679C190.082 156.125 190.393 155.374 190.393 154.591C190.393 153.808 190.082 153.058 189.528 152.504C188.974 151.95 188.224 151.639 187.441 151.639C186.658 151.639 185.907 151.95 185.353 152.504C184.8 153.058 184.489 153.808 184.489 154.591C184.489 155.374 184.8 156.125 185.353 156.679C185.907 157.232 186.658 157.543 187.441 157.543Z" fill="#DF251B"/>
<path d="M173.074 154.17C173.074 154.431 173.178 154.681 173.362 154.866C173.547 155.051 173.797 155.154 174.058 155.154C174.319 155.154 174.57 155.051 174.754 154.866C174.939 154.681 175.042 154.431 175.042 154.17C175.042 153.909 174.939 153.659 174.754 153.474C174.57 153.29 174.319 153.186 174.058 153.186C173.797 153.186 173.547 153.29 173.362 153.474C173.178 153.659 173.074 153.909 173.074 154.17ZM186.85 154.17C186.85 154.431 186.954 154.681 187.139 154.866C187.323 155.051 187.573 155.154 187.834 155.154C188.095 155.154 188.346 155.051 188.53 154.866C188.715 154.681 188.818 154.431 188.818 154.17C188.818 153.909 188.715 153.659 188.53 153.474C188.346 153.29 188.095 153.186 187.834 153.186C187.573 153.186 187.323 153.29 187.139 153.474C186.954 153.659 186.85 153.909 186.85 154.17Z" fill="white"/>
<defs>
<linearGradient id="paint0_linear_94907_86753" x1="53.2035" y1="90.6979" x2="178.568" y2="90.6979" gradientUnits="userSpaceOnUse">
<stop stop-color="#D53EF7"/>
<stop offset="1" stop-color="#C400B7"/>
</linearGradient>
<linearGradient id="paint1_linear_94907_86753" x1="126.476" y1="130.997" x2="160.923" y2="130.997" gradientUnits="userSpaceOnUse">
<stop stop-color="white"/>
<stop offset="1" stop-color="#FF6F00"/>
</linearGradient>
<linearGradient id="paint2_linear_94907_86753" x1="108.903" y1="192.807" x2="208.761" y2="191.36" gradientUnits="userSpaceOnUse">
<stop stop-color="#4F60FF"/>
<stop offset="1" stop-color="#133CF2"/>
</linearGradient>
<linearGradient id="paint3_linear_94907_86753" x1="172.939" y1="64.6401" x2="172.939" y2="179.925" gradientUnits="userSpaceOnUse">
<stop stop-color="#EF00E3"/>
<stop offset="1" stop-color="#8800C1"/>
</linearGradient>
<linearGradient id="paint4_linear_94907_86753" x1="69.3481" y1="195.168" x2="69.3481" y2="88.2856" gradientUnits="userSpaceOnUse">
<stop stop-color="#7360FF"/>
<stop offset="1" stop-color="#8D00C4"/>
</linearGradient>
<linearGradient id="paint5_linear_94907_86753" x1="67.9517" y1="131.082" x2="102.678" y2="131.082" gradientUnits="userSpaceOnUse">
<stop stop-color="white"/>
<stop offset="1" stop-color="#C400FF"/>
</linearGradient>
</defs>
</svg>
